<svg width="24" height="24" viewBox="0 0 24 24" fill="none" xmlns="http://www.w3.org/2000/svg">
<path d="M17 6.25C20.1756 6.25 22.75 8.82436 22.75 12C22.75 15.1756 20.1756 17.75 17 17.75H7C3.82436 17.75 1.25 15.1756 1.25 12C1.25 8.82436 3.82436 6.25 7 6.25H17ZM7 7.75C4.65279 7.75 2.75 9.65279 2.75 12C2.75 14.3472 4.65279 16.25 7 16.25H17C19.3472 16.25 21.25 14.3472 21.25 12C21.25 9.65279 19.3472 7.75 17 7.75H7ZM17 10.25C17.9665 10.25 18.75 11.0335 18.75 12C18.75 12.9665 17.9665 13.75 17 13.75C16.0335 13.75 15.25 12.9665 15.25 12C15.25 11.0335 16.0335 10.25 17 10.25Z" fill="#DDDDE2"/>
</svg>
